<svg width="701" height="316" viewBox="0 0 701 316" fill="none" xmlns="http://www.w3.org/2000/svg">
<path d="M27.1605 253.664L44.0667 56.1372L108.604 49.3541L91.111 246.943L27.1605 253.664Z" fill="white"/>
<path d="M170.728 256.493C162.312 253.489 155.869 251.256 151.401 249.793C146.933 248.33 142.243 247.166 137.332 246.3C132.585 245.463 128.767 246.056 125.879 248.078C122.604 244.631 120.764 238.315 120.359 229.129C120.137 226.558 120.387 223.226 121.108 219.133C122.667 210.294 129.286 202.43 140.965 195.544L228.661 146.192C208.15 139.031 193.638 134.699 185.126 133.198C176.613 131.697 168.096 132.137 159.575 134.516C156.425 126.534 155.586 118.369 157.058 110.02C158.53 101.671 162.67 95.9029 169.477 92.7147C176.448 89.5554 185.091 88.8849 195.404 90.7034C199.987 91.5116 204.677 92.6761 209.472 94.1969C214.268 95.7176 219.064 97.2383 223.859 98.7591L237.957 103.524C242.589 105.015 247.933 106.295 253.99 107.363C260.211 108.46 266.903 108.796 274.067 108.372C279.605 115.256 281.536 123.445 279.862 132.94C277.842 144.399 272.354 152.546 263.4 157.381L168.136 209.449C179.509 214.831 195.099 219.268 214.907 222.76C224.729 224.492 233.183 223.451 240.27 219.637C242.417 223.729 243.545 227.388 243.651 230.614C243.95 233.704 243.71 237.46 242.93 241.88C242.18 246.136 240.75 249.935 238.642 253.277C236.563 256.454 233.737 259.079 230.165 261.15C222.992 265.455 212.53 266.395 198.779 263.97C188.629 262.181 179.279 259.688 170.728 256.493Z" fill="#FFCB6C"/>
<path d="M350.99 252.955C341.144 252.329 333.628 251.92 328.441 251.727C323.255 251.534 317.924 251.725 312.449 252.301C307.156 252.857 303.285 254.648 300.835 257.673C296.311 255.012 292.437 248.869 289.211 239.244C288.193 236.583 287.444 232.971 286.965 228.409C285.929 218.553 290.56 208.195 300.859 197.333L378.904 118.275C354.959 116.917 338.241 116.736 328.751 117.734C319.261 118.731 310.356 121.789 302.037 126.907C296.265 119.395 292.89 110.985 291.912 101.678C290.934 92.3699 293.572 84.9887 299.826 79.5339C306.262 74.0599 315.229 70.7187 326.727 69.5102C331.837 68.9731 337.168 68.7819 342.72 68.9364C348.271 69.091 353.823 69.2455 359.375 69.4001L375.785 70.1663C381.155 70.34 387.216 70.072 393.968 69.3623C400.903 68.6334 408.108 66.9536 415.581 64.3229C423.552 69.9433 428.094 78.046 429.207 88.6312C430.55 101.406 427.205 111.722 419.174 119.578L333.924 203.822C347.63 206.071 365.525 206.036 387.608 203.715C398.558 202.564 407.213 198.886 413.573 192.682C417.097 196.371 419.407 199.911 420.501 203.302C421.759 206.491 422.647 210.55 423.165 215.477C423.663 220.222 423.302 224.689 422.082 228.876C420.842 232.882 418.642 236.526 415.481 239.811C409.179 246.562 398.363 250.744 383.033 252.355C371.718 253.544 361.037 253.744 350.99 252.955Z" fill="#F95D7E"/>
<path d="M455.772 247.164L463.823 79.7757L518.125 72.0105L509.58 239.47L455.772 247.164Z" fill="#43E2FA"/>
<path d="M646.38 195.898C649.539 199.887 651.118 205.123 651.118 211.606C651.118 220.582 647.793 227.481 641.144 232.301C634.495 236.956 625.935 239.283 615.463 239.283C609.478 239.283 601.915 238.618 592.773 237.288C574.82 234.462 563.102 233.049 557.616 233.049C552.131 233.049 548.307 233.215 546.147 233.548C543.986 233.714 541.16 233.963 537.669 234.296L568.338 69.7327H675.802C675.802 79.8724 673.309 87.6019 668.322 92.9211C663.502 98.2403 656.271 100.9 646.63 100.9C636.989 100.9 627.265 98.6559 617.457 94.1678L609.728 137.802H654.11C654.11 146.612 651.949 153.51 647.627 158.497C643.305 163.318 637.487 165.728 630.174 165.728C623.026 165.728 617.208 164.897 612.72 163.234C608.232 161.572 605.738 160.492 605.24 159.993L596.264 207.118C600.253 207.617 605.988 207.866 613.468 207.866C626.267 207.866 637.238 203.877 646.38 195.898Z" fill="#007AB5"/>
</svg>
